<?xml version="1.0" encoding="UTF-8" standalone="no"?>
<!-- Created with Inkscape (http://www.inkscape.org/) -->

<svg
   xmlns:dc="http://purl.org/dc/elements/1.1/"
   xmlns:cc="http://creativecommons.org/ns#"
   xmlns:rdf="http://www.w3.org/1999/02/22-rdf-syntax-ns#"
   xmlns:svg="http://www.w3.org/2000/svg"
   xmlns="http://www.w3.org/2000/svg"
   xmlns:sodipodi="http://sodipodi.sourceforge.net/DTD/sodipodi-0.dtd"
   xmlns:inkscape="http://www.inkscape.org/namespaces/inkscape"
   width="210mm"
   height="297mm"
   viewBox="0 0 210 297"
   version="1.1"
   id="svg8"
   inkscape:version="0.92.3 (2405546, 2018-03-11)"
   sodipodi:docname="logo.svg">
  <defs
     id="defs2" />
  <sodipodi:namedview
     id="base"
     pagecolor="#ffffff"
     bordercolor="#666666"
     borderopacity="1.0"
     inkscape:pageopacity="0.0"
     inkscape:pageshadow="2"
     inkscape:zoom="0.7"
     inkscape:cx="-197.78298"
     inkscape:cy="908.73943"
     inkscape:document-units="mm"
     inkscape:current-layer="layer1"
     showgrid="false"
     inkscape:window-width="1920"
     inkscape:window-height="1001"
     inkscape:window-x="-9"
     inkscape:window-y="-9"
     inkscape:window-maximized="1"
     inkscape:snap-page="false" />
  <metadata
     id="metadata5">
    <rdf:RDF>
      <cc:Work
         rdf:about="">
        <dc:format>image/svg+xml</dc:format>
        <dc:type
           rdf:resource="http://purl.org/dc/dcmitype/StillImage" />
        <dc:title />
      </cc:Work>
    </rdf:RDF>
  </metadata>
  <g
     inkscape:label="Layer 1"
     inkscape:groupmode="layer"
     id="layer1">
    <g
       id="g3742"
       transform="translate(125.11012,-149.67857)"
       style="stroke:#ffffff;stroke-opacity:1;stroke-width:1.1;stroke-miterlimit:4;stroke-dasharray:none">
      <path
         inkscape:connector-curvature="0"
         id="path3730"
         d="m -108.51143,215.75006 c 0,0 3.74178,-0.80181 16.303444,-11.22532 12.561667,-10.42351 16.303442,-18.70886 16.303442,-18.70886 l 6.681737,4.27631 c 0,0 2.672696,-3.47451 3.474503,-5.34539 0.801809,-1.87089 4.810853,-5.07812 4.810853,-5.07812 l 2.672696,-5.61267 h 1.336347 l 2.405425,2.13816 0.801809,4.54358 1.870887,1.60362 1.069078,2.93996 6.414469,5.61266 5.078121,6.94901 3.741772,-6.1472 1.870887,-1.33634 2.672694,2.13815 5.078122,4.81085 1.069078,3.47451 2.939965,2.93996 5.078121,1.33635 2.939965,3.20723 2.939965,4.00905 1.6036167,4.00904 z"
         style="fill:#4d4d4d;stroke:#ffffff;stroke-width:1.1;stroke-linecap:butt;stroke-linejoin:miter;stroke-opacity:1;stroke-miterlimit:4;stroke-dasharray:none" />
      <path
         inkscape:connector-curvature="0"
         id="path3732"
         d="m -88.733483,207.46471 c 0,0 10.156242,-11.49259 10.423511,-12.82894 0.267272,-1.33635 2.939966,-3.4745 2.939966,-3.4745 l 3.741774,3.74177 v 4.27631 l 3.474503,3.20723 v 3.74178 l 1.870887,4.00904 -4.543581,-0.53454 -4.276315,1.33635 -4.543581,-2.40543 -4.81085,-0.26727 z"
         style="fill:#e6e6e6;stroke:#ffffff;stroke-width:1.1;stroke-linecap:butt;stroke-linejoin:miter;stroke-opacity:1;stroke-miterlimit:4;stroke-dasharray:none" />
      <path
         inkscape:connector-curvature="0"
         id="path3734"
         d="m -62.808339,187.41949 4.510003,-7.81155 2.487747,4.30891 3.03171,5.25107 2.137944,7.97892 -2.417945,-1.396 3.180308,5.50845 -2.351312,2.35131 -3.896715,-3.89671 -3.732181,-2.15477 -3.415995,-1.97223 -3.048672,-3.04867 z"
         style="fill:#e6e6e6;stroke:#ffffff;stroke-width:1.1;stroke-linecap:butt;stroke-linejoin:miter;stroke-opacity:1;stroke-miterlimit:4;stroke-dasharray:none" />
      <path
         inkscape:connector-curvature="0"
         id="path3736"
         d="m -25.123335,209.87013 -8.381897,-4.83929 -4.881997,-4.88199 4.176729,-4.17673 1.795761,6.70186 4.643636,2.68101 3.013163,5.21895 z"
         style="fill:#e6e6e6;stroke:#ffffff;stroke-width:1.1;stroke-linecap:butt;stroke-linejoin:miter;stroke-opacity:1;stroke-miterlimit:4;stroke-dasharray:none" />
    </g>
  </g>
</svg>