<?xml version="1.0" encoding="utf-8"?>
<!-- Generator: Adobe Illustrator 22.1.0, SVG Export Plug-In . SVG Version: 6.00 Build 0)  -->
<svg version="1.1"
	 id="svg8" inkscape:version="0.92.3 (2405546, 2018-03-11)" sodipodi:docname="logo.svg" xmlns:cc="http://creativecommons.org/ns#" xmlns:dc="http://purl.org/dc/elements/1.1/" xmlns:inkscape="http://www.inkscape.org/namespaces/inkscape" xmlns:rdf="http://www.w3.org/1999/02/22-rdf-syntax-ns#" xmlns:sodipodi="http://sodipodi.sourceforge.net/DTD/sodipodi-0.dtd" xmlns:svg="http://www.w3.org/2000/svg"
	 xmlns="http://www.w3.org/2000/svg" xmlns:xlink="http://www.w3.org/1999/xlink" x="0px" y="0px" viewBox="0 0 320.3 203.9"
	 style="enable-background:new 0 0 320.3 203.9;" xml:space="preserve">
<style type="text/css">
	.st0{fill:#4971AB;}
	.st1{enable-background:new    ;}
</style>
<sodipodi:namedview  bordercolor="#666666" borderopacity="1.0" id="base" inkscape:current-layer="layer1" inkscape:cx="-197.78298" inkscape:cy="908.73943" inkscape:document-units="mm" inkscape:pageopacity="0.0" inkscape:pageshadow="2" inkscape:snap-page="false" inkscape:window-height="1001" inkscape:window-maximized="1" inkscape:window-width="1920" inkscape:window-x="-9" inkscape:window-y="-9" inkscape:zoom="0.7" pagecolor="#ffffff" showgrid="false">
	</sodipodi:namedview>
<g>
	<g>
		<polygon class="st0" points="137.9,40.4 136.6,47.5 125,57.2 124.3,66.2 141.7,50.7 		"/>
		<path class="st0" d="M273.6,123.3l-18.4-17.2l-17.2-4.7l-28.4-25.3l-17.5,4.2l-12.9-8.2c0,0-5.1-10.6-4.7-11.8S158,38.4,158,38.4
			l-7.4-7.4l-13.7-9l-6.7,10.6l-2.4,11l-3.1,4.3l-7.1,3.5L113.7,69l-20,18l-9,5.9l-7.8,17.2l-6.7-4.3l-13.7,8.6l-19.4,15.2v2.9h4.1
			v-1.4l16.7-14.5l12.7-7.4l8.3,6.5l9.5-19.6l8.8-4.9l19.6-19l3.9-17.3l7.5-4.9l2.9-4.9l2-10.8l4.6-8.5l4.2,7.2l5.6,15.7l8.8,13.2
			l-7.2,9.6V89l7.2,21.3l-11,10.3l-3.4,8.1l-15.5,3.6h135.1l-33.4-11.9l21.9-0.6l-8.4-9.7l12.9,1.9l14.2,14.8l5.8,5.5h11.2v-0.8
			L273.6,123.3z M200.9,93.6l11.2,16.6l-47.3-33.9l7.7-0.6l-5.3-17.1l8.4,15l17.6,13.2l12.5-3.1l27.1,24.8L200.9,93.6z"/>
		<polygon class="st0" points="77.1,132.3 112.7,132.3 98.6,126.1 118.5,104.3 		"/>
	</g>
	<g class="st1">
		<path class="st0" d="M37.2,166.8c0.2-2.8,0.4-5.1,0.5-6.8s0.2-5.1,0.4-10s0.2-8,0.2-9.3v-1.9c1.8,0,3.2,0,4.2,0c0.8,0,1.8,0,3.2,0
			c1.3,0,2.3,0,3.1,0c1.5,0,2.6,0.1,3.4,0.2c0.8,0.2,1.5,0.4,2.1,0.7s1.1,0.7,1.5,1.2s0.7,1.1,1,1.9s0.4,1.6,0.4,2.4
			c0,0.7-0.1,1.4-0.3,2c-0.2,0.6-0.4,1.3-0.8,1.8s-0.7,1.1-1.2,1.5s-0.9,0.7-1.3,1s-1,0.5-1.6,0.7c0.7,0.2,1.2,0.3,1.6,0.5
			s0.8,0.4,1.2,0.7s0.8,0.6,1.1,1s0.6,0.8,0.9,1.3s0.4,1,0.5,1.5c0.1,0.6,0.2,1.2,0.2,1.8c0,0.9-0.1,1.7-0.4,2.5s-0.6,1.5-1.1,2.1
			s-1.1,1.1-1.7,1.6c-0.7,0.4-1.3,0.7-1.9,0.9s-1.5,0.4-2.5,0.5c-1.1,0.1-2.5,0.1-4.2,0.1h-5.1L37.2,166.8z M41.1,164.2h5.2
			c1.5,0,2.6-0.1,3.3-0.2c0.7-0.2,1.4-0.5,2.1-0.9s1.2-1,1.6-1.9c0.4-0.8,0.6-1.7,0.6-2.6c0-0.8-0.1-1.5-0.4-2.1s-0.7-1.1-1.2-1.6
			s-1.1-0.8-1.9-1s-1.7-0.3-3.1-0.3h-5.8L41.1,164.2z M41.5,151h3.6c1.6,0,2.7,0,3.3-0.1c0.6-0.1,1.2-0.3,1.9-0.5s1.3-0.7,1.7-1.2
			s0.8-1.1,1-1.8c0.2-0.6,0.3-1.3,0.3-1.9c0-0.7-0.1-1.3-0.3-1.8s-0.6-1-1-1.3s-1-0.6-1.6-0.8s-1.5-0.2-2.7-0.2h-5.9L41.5,151z"/>
		<path class="st0" d="M60.7,166.8c0.5-7.9,0.7-14.2,0.7-18.9V146c0.7,0,1.2,0,1.7,0s1.1,0,1.7,0l-0.2,3.4c0.5-0.8,0.9-1.5,1.3-1.9
			s0.8-0.8,1.3-1.1s1-0.5,1.6-0.7s1.2-0.2,1.9-0.2c0.6,0,1.1,0.1,1.7,0.2c0,0.9,0.1,1.9,0.1,3c-0.8-0.2-1.6-0.3-2.2-0.3
			c-0.8,0-1.5,0.1-2.1,0.4s-1.2,0.7-1.7,1.2s-0.9,1.2-1.2,1.9c-0.3,0.6-0.5,1.4-0.6,2.3s-0.3,2.7-0.3,5.2c-0.1,1.8-0.1,3.8-0.1,5.9
			v1.4c-0.7,0-1.3,0-1.7,0C62.1,166.7,61.5,166.7,60.7,166.8z"/>
		<path class="st0" d="M90.9,163.5c-0.2,0.8-0.3,1.7-0.5,2.9c-1.3,0.3-2.4,0.6-3.3,0.7c-0.9,0.1-1.9,0.2-2.8,0.2
			c-1.7,0-3.2-0.2-4.5-0.6c-1.3-0.4-2.5-1.1-3.4-2.1s-1.6-2.2-2-3.5s-0.6-2.7-0.6-4.2c0-2,0.4-3.9,1.1-5.7c0.8-1.7,1.9-3.1,3.4-4.1
			s3.5-1.5,5.8-1.5c1.2,0,2.4,0.2,3.5,0.5s2,0.9,2.8,1.7c0.7,0.7,1.3,1.7,1.7,2.7s0.6,2.3,0.6,3.6c0,0.5,0,1-0.1,1.4H77.3
			c-0.1,0.8-0.1,1.3-0.1,1.7c0,1.4,0.3,2.8,0.9,4s1.5,2.1,2.6,2.7s2.5,0.9,4,0.9C86.4,164.8,88.5,164.4,90.9,163.5z M77.4,153.7h12
			c0-0.9-0.1-1.5-0.2-2s-0.3-1-0.5-1.5c-0.3-0.5-0.6-1-1-1.3c-0.4-0.4-1-0.7-1.6-0.9s-1.3-0.3-2-0.3c-0.8,0-1.5,0.1-2.2,0.3
			s-1.3,0.5-1.8,0.9s-1,0.8-1.3,1.3c-0.4,0.5-0.6,1-0.8,1.5S77.6,152.9,77.4,153.7z"/>
		<path class="st0" d="M112,163.5c-0.2,0.8-0.3,1.7-0.5,2.9c-1.3,0.3-2.4,0.6-3.3,0.7c-0.9,0.1-1.9,0.2-2.8,0.2
			c-1.7,0-3.2-0.2-4.5-0.6c-1.3-0.4-2.5-1.1-3.4-2.1s-1.6-2.2-2-3.5s-0.6-2.7-0.6-4.2c0-2,0.4-3.9,1.1-5.7c0.8-1.7,1.9-3.1,3.4-4.1
			s3.5-1.5,5.8-1.5c1.2,0,2.4,0.2,3.5,0.5s2,0.9,2.8,1.7c0.7,0.7,1.3,1.7,1.7,2.7s0.6,2.3,0.6,3.6c0,0.5,0,1-0.1,1.4H98.4
			c-0.1,0.8-0.1,1.3-0.1,1.7c0,1.4,0.3,2.8,0.9,4s1.5,2.1,2.6,2.7s2.5,0.9,4,0.9C107.4,164.8,109.5,164.4,112,163.5z M98.4,153.7h12
			c0-0.9-0.1-1.5-0.2-2s-0.3-1-0.5-1.5c-0.3-0.5-0.6-1-1-1.3c-0.4-0.4-1-0.7-1.6-0.9s-1.3-0.3-2-0.3c-0.8,0-1.5,0.1-2.2,0.3
			s-1.3,0.5-1.8,0.9s-1,0.8-1.3,1.3c-0.4,0.5-0.6,1-0.8,1.5S98.6,152.9,98.4,153.7z"/>
		<path class="st0" d="M115,166.8c0.1-0.9,0.1-1.9,0.1-3.1l1-1.3c0.2-0.2,0.4-0.5,0.6-0.7l10.4-13.2c-1.2,0-2.5,0-3.9,0
			c-2.2,0-4.5,0.1-6.9,0.2c0.1-0.9,0.1-1.8,0.1-2.7c2.2,0,4.7,0,7.5,0c2.5,0,4.9,0,7,0c0,0.5-0.1,1.1-0.1,1.7l-0.1,1.5
			c-0.5,0.6-1,1.2-1.5,1.8l-10.5,13.2c1.3,0.1,2.6,0.1,3.8,0.1c3.2,0,5.7-0.1,7.6-0.2c-0.1,0.7-0.2,1.6-0.2,2.7c-2.2,0-4.6,0-7.2,0
			C119.5,166.7,116.9,166.7,115,166.8z"/>
		<path class="st0" d="M150.5,163.5c-0.2,0.8-0.3,1.7-0.5,2.9c-1.3,0.3-2.4,0.6-3.3,0.7c-0.9,0.1-1.9,0.2-2.8,0.2
			c-1.7,0-3.2-0.2-4.5-0.6c-1.3-0.4-2.5-1.1-3.4-2.1s-1.6-2.2-2-3.5s-0.6-2.7-0.6-4.2c0-2,0.4-3.9,1.1-5.7c0.8-1.7,1.9-3.1,3.4-4.1
			s3.5-1.5,5.8-1.5c1.2,0,2.4,0.2,3.5,0.5s2,0.9,2.8,1.7c0.7,0.7,1.3,1.7,1.7,2.7s0.6,2.3,0.6,3.6c0,0.5,0,1-0.1,1.4h-15.3
			c-0.1,0.8-0.1,1.3-0.1,1.7c0,1.4,0.3,2.8,0.9,4c0.6,1.2,1.5,2.1,2.6,2.7s2.5,0.9,4,0.9C145.9,164.8,148,164.4,150.5,163.5z
			 M136.9,153.7h12c0-0.9-0.1-1.5-0.2-2s-0.3-1-0.5-1.5c-0.3-0.5-0.6-1-1-1.3c-0.4-0.4-1-0.7-1.6-0.9s-1.3-0.3-2-0.3
			c-0.8,0-1.5,0.1-2.2,0.3s-1.3,0.5-1.8,0.9s-1,0.8-1.3,1.3c-0.4,0.5-0.6,1-0.8,1.5S137.1,152.9,136.9,153.7z"/>
		<path class="st0" d="M183.9,154.3c0.7,0,1.2,0,1.6,0c0.4,0,0.9,0,1.5,0c0,1.4-0.2,2.8-0.5,4.1s-0.8,2.6-1.5,3.7
			c0.8,0.8,1.6,1.6,2.4,2.4c0.8,0.8,1.6,1.5,2.3,2.2c-1,0-1.7,0-2.1,0c-0.6,0-1.3,0-2,0l-2.9-2.8c-0.5,0.4-0.9,0.7-1.2,1
			s-0.8,0.5-1.3,0.8s-1.1,0.5-1.7,0.7c-0.6,0.2-1.3,0.4-2.1,0.5s-1.6,0.2-2.4,0.2c-1.9,0-3.6-0.3-5.1-0.9s-2.6-1.5-3.4-2.7
			c-0.8-1.2-1.2-2.5-1.2-4c0-0.7,0.1-1.4,0.3-2.2s0.6-1.4,1.1-2.2s1.2-1.4,2-2s2-1.4,3.5-2.2c-1-1.4-1.6-2.6-2-3.6
			c-0.3-1-0.5-1.8-0.5-2.7c0-0.8,0.2-1.6,0.6-2.5c0.4-0.8,0.9-1.5,1.6-2.2s1.6-1.1,2.5-1.3c0.9-0.3,1.9-0.4,3-0.4
			c0.7,0,1.4,0.1,2.2,0.2c0.8,0.1,1.7,0.4,2.7,0.7c0,1.4,0,2.3,0,2.9c-0.8-0.5-1.5-0.8-2.2-1s-1.3-0.3-1.9-0.3c-1,0-1.8,0.2-2.6,0.5
			s-1.4,0.9-1.8,1.6s-0.6,1.4-0.6,2.2c0,0.5,0.1,1,0.2,1.6s0.5,1.2,0.9,1.9c0.6,1.1,1.5,2.4,2.7,3.9c1,1.2,2.1,2.5,3.3,3.7
			c0.5,0.5,1.6,1.6,3.5,3.5c0.2-0.5,0.4-0.9,0.5-1.1c0.1-0.3,0.2-0.6,0.3-1.1s0.2-1,0.2-1.5C183.8,155.5,183.8,154.9,183.9,154.3z
			 M180.7,161.9c-1.7-1.6-3.1-3.1-4.3-4.4c-1.2-1.3-2.5-2.8-3.7-4.3c-1.1,0.7-2,1.3-2.6,1.8s-1.1,1-1.5,1.5s-0.7,1.1-0.8,1.5
			c-0.1,0.5-0.2,1-0.2,1.5c0,1,0.3,1.9,0.8,2.7c0.6,0.8,1.4,1.4,2.4,1.9c1,0.4,2.2,0.6,3.5,0.6c0.8,0,1.5-0.1,2.2-0.2
			c0.7-0.2,1.3-0.4,1.9-0.6c0.5-0.3,1-0.5,1.3-0.8C180,162.7,180.3,162.3,180.7,161.9z"/>
		<path class="st0" d="M201.8,166.8l0.6-8.4l0.6-16.6c0-0.7,0-1.7,0-3c1.7,0,3.1,0,4.3,0c0.7,0,1.9,0,3.5,0s2.7,0,3.3,0
			c2.2,0,4.1,0.2,5.6,0.5c1.1,0.3,2.2,0.7,3.2,1.4s1.8,1.5,2.6,2.6s1.3,2.2,1.7,3.5c0.4,1.5,0.6,3.1,0.6,4.8c0,2.3-0.4,4.5-1.2,6.6
			s-2,3.8-3.5,5.3c-1.6,1.4-3.3,2.3-5.2,2.8c-1.9,0.4-4.1,0.7-6.5,0.7h-5.6C205.4,166.7,204.1,166.7,201.8,166.8z M205.7,164
			c1.6,0,3.1,0.1,4.5,0.1c1.2,0,2.4-0.1,3.6-0.2s2.3-0.3,3.3-0.6s1.9-0.9,2.9-1.7s1.7-1.7,2.3-2.8s1-2.2,1.3-3.5s0.4-2.6,0.4-3.9
			c0-1.5-0.2-2.8-0.6-4.1s-1-2.4-1.9-3.4s-2-1.7-3.2-2s-2.9-0.5-4.9-0.5c-2.5,0-4.8,0-6.9,0.1L205.7,164z"/>
		<path class="st0" d="M247.5,163.5c-0.2,0.8-0.3,1.7-0.5,2.9c-1.3,0.3-2.4,0.6-3.3,0.7c-0.9,0.1-1.9,0.2-2.8,0.2
			c-1.7,0-3.2-0.2-4.5-0.6c-1.3-0.4-2.5-1.1-3.4-2.1s-1.6-2.2-2-3.5s-0.6-2.7-0.6-4.2c0-2,0.4-3.9,1.1-5.7c0.8-1.7,1.9-3.1,3.4-4.1
			s3.5-1.5,5.8-1.5c1.2,0,2.4,0.2,3.5,0.5s2,0.9,2.8,1.7c0.7,0.7,1.3,1.7,1.7,2.7s0.6,2.3,0.6,3.6c0,0.5,0,1-0.1,1.4h-15.3
			c-0.1,0.8-0.1,1.3-0.1,1.7c0,1.4,0.3,2.8,0.9,4s1.5,2.1,2.6,2.7s2.5,0.9,4,0.9C243,164.8,245.1,164.4,247.5,163.5z M234,153.7h12
			c0-0.9-0.1-1.5-0.2-2s-0.3-1-0.5-1.5c-0.3-0.5-0.6-1-1-1.3c-0.4-0.4-1-0.7-1.6-0.9s-1.3-0.3-2-0.3c-0.8,0-1.5,0.1-2.2,0.3
			s-1.3,0.5-1.8,0.9s-1,0.8-1.3,1.3c-0.4,0.5-0.6,1-0.8,1.5S234.2,152.9,234,153.7z"/>
		<path class="st0" d="M257.2,166.8l-0.9-3L250,146c0.7,0,1.3,0,1.8,0c0.4,0,1,0,1.6,0l1.8,5.5l4.1,12.1l6.3-17.6c0.7,0,1.3,0,1.8,0
			s1.1,0,1.8,0l4.6,17.6l5.6-13.6l1.6-4c0.7,0,1.3,0,1.7,0h1.7l-6.8,15.5l-2.2,5.3c-0.7,0-1.3,0-1.8,0c-0.6,0-1.2,0-2,0l-3.7-14.4
			c-0.2-0.9-0.5-1.9-0.8-2.8l-0.4,1.1c-0.1,0.3-0.4,1.1-0.8,2.3l-4.2,11.8c-0.2,0.6-0.4,1.2-0.7,2.1c-0.7,0-1.3,0-1.8,0
			C258.6,166.7,257.9,166.7,257.2,166.8z"/>
	</g>
	<rect x="34.5" y="173.6" class="st0" width="255.5" height="4.6"/>
</g>
</svg>
