<?xml version="1.0" encoding="utf-8"?>
<!-- Generator: Adobe Illustrator 22.1.0, SVG Export Plug-In . SVG Version: 6.00 Build 0)  -->
<svg version="1.1" id="Layer_1" xmlns="http://www.w3.org/2000/svg" xmlns:xlink="http://www.w3.org/1999/xlink" x="0px" y="0px"
	 viewBox="0 0 1400 980" style="enable-background:new 0 0 1400 980;" xml:space="preserve">
<style type="text/css">
	.st0{fill:#4971AB;}
	.st1{font-family:'ErasITC-Medium';}
	.st2{font-size:40px;}
</style>
<g>
	<g>
		<polygon class="st0" points="478.9,482.4 477.6,489.5 466,499.2 465.3,508.2 482.7,492.7 		"/>
		<path class="st0" d="M614.6,565.3l-18.4-17.2l-17.2-4.7l-28.4-25.3l-17.5,4.2l-12.9-8.2c0,0-5.1-10.6-4.7-11.8
			c0.4-1.2-16.5-21.9-16.5-21.9l-7.4-7.4l-13.7-9l-6.7,10.6l-2.4,11l-3.1,4.3l-7.1,3.5l-3.9,17.6l-20,18l-9,5.9l-7.8,17.2l-6.7-4.3
			l-13.7,8.6l-19.4,15.2v2.9h4.1v-1.4l16.7-14.5l12.7-7.4l8.3,6.5l9.5-19.6l8.8-4.9l19.6-19l3.9-17.3l7.5-4.9l2.9-4.9l2-10.8
			l4.6-8.5l4.2,7.2l5.6,15.7l8.8,13.2l-7.2,9.6V531l7.2,21.3l-11,10.3l-3.4,8.1l-15.5,3.6h135.1l-33.4-11.9l21.9-0.6l-8.4-9.7
			l12.9,1.9l14.2,14.8l5.8,5.5h11.2v-0.8L614.6,565.3z M541.9,535.6l11.2,16.6l-47.3-33.9l7.7-0.6l-5.3-17.1l8.4,15l17.6,13.2
			l12.5-3.1l27.1,24.8L541.9,535.6z"/>
		<polygon class="st0" points="418.1,574.3 453.7,574.3 439.6,568.1 459.5,546.3 		"/>
	</g>
	<text transform="matrix(1 0 0 1 375.3981 607.269)" class="st0 st1 st2">Breeze &amp; Dew </text>
	<rect x="364.6" y="615.6" class="st0" width="275.6" height="4.6"/>
</g>
</svg>
