<?xml version="1.0" encoding="utf-8"?>
<!-- Generator: Adobe Illustrator 22.1.0, SVG Export Plug-In . SVG Version: 6.00 Build 0)  -->
<svg version="1.1"
	 id="svg8" inkscape:version="0.92.3 (2405546, 2018-03-11)" sodipodi:docname="logo.svg" xmlns:cc="http://creativecommons.org/ns#" xmlns:dc="http://purl.org/dc/elements/1.1/" xmlns:inkscape="http://www.inkscape.org/namespaces/inkscape" xmlns:rdf="http://www.w3.org/1999/02/22-rdf-syntax-ns#" xmlns:sodipodi="http://sodipodi.sourceforge.net/DTD/sodipodi-0.dtd" xmlns:svg="http://www.w3.org/2000/svg"
	 xmlns="http://www.w3.org/2000/svg" xmlns:xlink="http://www.w3.org/1999/xlink" x="0px" y="0px" viewBox="0 0 595.3 841.9"
	 style="enable-background:new 0 0 595.3 841.9;" xml:space="preserve">
<style type="text/css">
	.st0{fill:#4971AB;}
	.st1{font-family:'ErasITC-Medium';}
	.st2{font-size:42px;}
</style>
<sodipodi:namedview  bordercolor="#666666" borderopacity="1.0" id="base" inkscape:current-layer="layer1" inkscape:cx="-197.78298" inkscape:cy="908.73943" inkscape:document-units="mm" inkscape:pageopacity="0.0" inkscape:pageshadow="2" inkscape:snap-page="false" inkscape:window-height="1001" inkscape:window-maximized="1" inkscape:window-width="1920" inkscape:window-x="-9" inkscape:window-y="-9" inkscape:zoom="0.7" pagecolor="#ffffff" showgrid="false">
	</sodipodi:namedview>
<g>
	<polygon class="st0" points="163.9,70.4 162.6,77.5 151,87.2 150.3,96.2 167.7,80.7 	"/>
	<path class="st0" d="M299.6,153.3l-18.4-17.2l-17.2-4.7l-28.4-25.3l-17.5,4.2l-12.9-8.2c0,0-5.1-10.6-4.7-11.8S184,68.4,184,68.4
		l-7.4-7.4l-13.7-9l-6.7,10.6l-2.4,11l-3.1,4.3l-7.1,3.5L139.7,99l-20,18l-9,5.9l-7.8,17.2l-6.7-4.3l-13.7,8.6l-19.4,15.2v2.9h4.1
		v-1.4l16.7-14.5l12.7-7.4l8.3,6.5l9.5-19.6l8.8-4.9l19.6-19l3.9-17.3l7.5-4.9l2.9-4.9l2-10.8l4.6-8.5l4.2,7.2l5.6,15.7l8.8,13.2
		l-7.2,9.6V119l7.2,21.3l-11,10.3l-3.4,8.1l-15.5,3.6h135.1l-33.4-11.9l21.9-0.6l-8.4-9.7l12.9,1.9l14.2,14.8l5.8,5.5h11.2v-0.8
		L299.6,153.3z M226.9,123.6l11.2,16.6l-47.3-33.9l7.7-0.6l-5.3-17.1l8.4,15l17.6,13.2l12.5-3.1l27.1,24.8L226.9,123.6z"/>
	<polygon class="st0" points="103.1,162.3 138.7,162.3 124.6,156.1 144.5,134.3 	"/>
</g>
<text transform="matrix(1 0 0 1 57.1069 197.269)" class="st0 st1 st2">Breeze &amp; Dew</text>
<rect x="48.6" y="203.6" class="st0" width="275.6" height="4.6"/>
</svg>
