<?xml version="1.0" encoding="utf-8"?>
<!-- Generator: Adobe Illustrator 22.1.0, SVG Export Plug-In . SVG Version: 6.00 Build 0)  -->
<svg version="1.1"
	 id="svg8" inkscape:version="0.92.3 (2405546, 2018-03-11)" sodipodi:docname="logo.svg" xmlns:cc="http://creativecommons.org/ns#" xmlns:dc="http://purl.org/dc/elements/1.1/" xmlns:inkscape="http://www.inkscape.org/namespaces/inkscape" xmlns:rdf="http://www.w3.org/1999/02/22-rdf-syntax-ns#" xmlns:sodipodi="http://sodipodi.sourceforge.net/DTD/sodipodi-0.dtd" xmlns:svg="http://www.w3.org/2000/svg"
	 xmlns="http://www.w3.org/2000/svg" xmlns:xlink="http://www.w3.org/1999/xlink" x="0px" y="0px" viewBox="0 0 282.3 182.4"
	 style="enable-background:new 0 0 282.3 182.4;" xml:space="preserve">
<style type="text/css">
	.st0{fill:#FFFFFF;}
	.st1{fill:#FFFFFF;stroke:#FFFFFF;stroke-width:5;stroke-miterlimit:10;}
</style>
<sodipodi:namedview  bordercolor="#666666" borderopacity="1.0" id="base" inkscape:current-layer="layer1" inkscape:cx="-197.78298" inkscape:cy="908.73943" inkscape:document-units="mm" inkscape:pageopacity="0.0" inkscape:pageshadow="2" inkscape:snap-page="false" inkscape:window-height="1001" inkscape:window-maximized="1" inkscape:window-width="1920" inkscape:window-x="-9" inkscape:window-y="-9" inkscape:zoom="0.7" pagecolor="#ffffff" showgrid="false">
	</sodipodi:namedview>
<g>
	<polygon class="st0" points="118.4,35.9 117.1,43 105.5,52.7 104.8,61.7 122.2,46.2 	"/>
	<path class="st0" d="M254.1,118.8l-18.4-17.2l-17.2-4.7l-28.4-25.3l-17.5,4.2l-12.9-8.2c0,0-5.1-10.6-4.7-11.8
		s-16.5-21.9-16.5-21.9l-7.4-7.4l-13.7-9l-6.7,10.6l-2.4,11l-3.1,4.3l-7.1,3.5l-3.9,17.6l-20,18l-9,5.9l-7.8,17.2l-6.7-4.3L37,109.9
		l-19.4,15.2v2.9h4.1v-1.4l16.7-14.5l12.7-7.4l8.3,6.5l9.5-19.6l8.8-4.9l19.6-19l3.9-17.3l7.5-4.9l2.9-4.9l2-10.8l4.6-8.5l4.2,7.2
		l5.6,15.7l8.8,13.2l-7.2,9.6v17.5l7.2,21.3l-11,10.3l-3.4,8.1l-15.5,3.6H242l-33.4-11.9l21.9-0.6l-8.4-9.7l12.9,1.9l14.2,14.8
		l5.8,5.5h11.2V127L254.1,118.8z M181.4,89.1l11.2,16.6l-47.3-33.9l7.7-0.6l-5.3-17.1l8.4,15l17.6,13.2l12.5-3.1l27.1,24.8
		L181.4,89.1z"/>
	<polygon class="st0" points="57.6,127.8 93.2,127.8 79.1,121.6 99,99.8 	"/>
</g>
<rect x="7.5" y="8" class="st1" width="267.5" height="166.5"/>
<g>
	<path class="st0" d="M36.1,147.4c-0.8,0.9-1.9,1.6-3.3,2.1c1.4,0.5,2.6,1.2,3.3,2.1c0.8,0.9,1.2,2,1.2,3.4v6c0,2.1-0.7,3.6-2.1,4.6
		c-1.4,1-3.4,1.5-6,1.5h-4.6h-3.3h-1.5c-0.3,0-0.5-0.1-0.7-0.3c-0.2-0.2-0.3-0.4-0.3-0.6v-30.1c0-0.2,0.1-0.4,0.3-0.6
		c0.2-0.2,0.4-0.3,0.7-0.3h1.5h3.3h4.6c2.6,0,4.6,0.5,6,1.5c1.4,1,2.1,2.6,2.1,4.6v2.6C37.3,145.4,36.9,146.5,36.1,147.4z
		 M24.6,140.1v7.1h2.6c1.2,0,2.2-0.2,3-0.7c0.8-0.4,1.2-1.1,1.3-1.9v-2.7c-0.1-0.8-0.4-1.3-1.1-1.5c-0.6-0.2-1.7-0.3-3.2-0.3H24.6z
		 M31.5,154.5c-0.1-0.8-0.5-1.4-1.3-1.9c-0.8-0.4-1.8-0.7-3-0.7h-2.6v10.5h2.6c1.5,0,2.5-0.1,3.2-0.3c0.6-0.2,1-0.7,1.1-1.5V154.5z"
		/>
	<path class="st0" d="M57.4,149.2c-0.8,0.9-1.9,1.6-3.3,2.1c1.4,0.5,2.5,1.2,3.3,2.1c0.8,0.9,1.2,2,1.2,3.4v7.4v2.2
		c0,0.2-0.1,0.4-0.3,0.6c-0.2,0.2-0.5,0.3-0.7,0.3h-3.8c-0.3,0-0.5-0.1-0.7-0.3c-0.2-0.2-0.3-0.4-0.3-0.6v-2.2v-0.9v-7
		c-0.1-0.8-0.5-1.5-1.3-1.9c-0.8-0.4-1.8-0.6-3-0.6h-2.6v12.7c0,0.2-0.1,0.4-0.3,0.6c-0.2,0.2-0.5,0.3-0.7,0.3h-3.7
		c-0.3,0-0.5-0.1-0.7-0.3c-0.2-0.2-0.3-0.4-0.3-0.6v-30.1c0-0.2,0.1-0.4,0.3-0.6c0.2-0.2,0.5-0.3,0.7-0.3h1.4h3.3h4.6
		c2.6,0,4.6,0.5,6,1.5c1.4,1,2.1,2.6,2.1,4.6v4.3C58.6,147.1,58.2,148.3,57.4,149.2z M45.9,140.1v8.7h2.6c1.2,0,2.2-0.2,3-0.6
		c0.8-0.4,1.2-1.1,1.3-1.9v-4.5c-0.1-0.8-0.4-1.3-1.1-1.5c-0.6-0.2-1.7-0.3-3.2-0.3H45.9z"/>
	<path class="st0" d="M67.2,140.1v8.7h7.9c0.3,0,0.5,0.1,0.7,0.3c0.2,0.2,0.3,0.4,0.3,0.6v3.1c0,0.2-0.1,0.4-0.3,0.6
		c-0.2,0.2-0.5,0.3-0.7,0.3h-7.9v8.7h10c0.3,0,0.5,0.1,0.7,0.3c0.2,0.2,0.3,0.4,0.3,0.6v3.1c0,0.2-0.1,0.4-0.3,0.6
		c-0.2,0.2-0.5,0.3-0.7,0.3h-10h-2.7h-2c-0.3,0-0.5-0.1-0.7-0.3c-0.2-0.2-0.3-0.4-0.3-0.6v-30.1c0-0.2,0.1-0.4,0.3-0.6
		c0.2-0.2,0.5-0.3,0.7-0.3h2h2.7h10c0.3,0,0.5,0.1,0.7,0.3c0.2,0.2,0.3,0.4,0.3,0.6v3.1c0,0.2-0.1,0.4-0.3,0.6
		c-0.2,0.2-0.5,0.3-0.7,0.3H67.2z"/>
	<path class="st0" d="M86.9,140.1v8.7h7.9c0.3,0,0.5,0.1,0.7,0.3c0.2,0.2,0.3,0.4,0.3,0.6v3.1c0,0.2-0.1,0.4-0.3,0.6
		c-0.2,0.2-0.5,0.3-0.7,0.3h-7.9v8.7h10c0.3,0,0.5,0.1,0.7,0.3c0.2,0.2,0.3,0.4,0.3,0.6v3.1c0,0.2-0.1,0.4-0.3,0.6
		c-0.2,0.2-0.5,0.3-0.7,0.3h-10h-2.7h-2c-0.3,0-0.5-0.1-0.7-0.3c-0.2-0.2-0.3-0.4-0.3-0.6v-30.1c0-0.2,0.1-0.4,0.3-0.6
		c0.2-0.2,0.5-0.3,0.7-0.3h2h2.7h10c0.3,0,0.5,0.1,0.7,0.3c0.2,0.2,0.3,0.4,0.3,0.6v3.1c0,0.2-0.1,0.4-0.3,0.6
		c-0.2,0.2-0.5,0.3-0.7,0.3H86.9z"/>
	<path class="st0" d="M117.5,135.6c0.1,0.2,0.2,0.4,0.1,0.6l-9.5,26.2h8.5c0.3,0,0.5,0.1,0.7,0.2c0.2,0.2,0.3,0.3,0.3,0.6v3.1
		c0,0.2-0.1,0.4-0.3,0.6c-0.2,0.2-0.4,0.3-0.7,0.3h-10.2h-2.5h-2.3c-0.3,0-0.5-0.1-0.7-0.3c-0.1-0.2-0.2-0.4-0.1-0.6l9.5-26.2h-8.6
		c-0.3,0-0.5-0.1-0.7-0.3c-0.2-0.2-0.3-0.4-0.3-0.6v-3.1c0-0.2,0.1-0.4,0.3-0.6c0.2-0.2,0.4-0.3,0.7-0.3H112h2.4h2.4
		C117.1,135.3,117.3,135.4,117.5,135.6z"/>
	<path class="st0" d="M126.2,140.1v8.7h7.9c0.3,0,0.5,0.1,0.7,0.3c0.2,0.2,0.3,0.4,0.3,0.6v3.1c0,0.2-0.1,0.4-0.3,0.6
		c-0.2,0.2-0.5,0.3-0.7,0.3h-7.9v8.7h10c0.3,0,0.5,0.1,0.7,0.3c0.2,0.2,0.3,0.4,0.3,0.6v3.1c0,0.2-0.1,0.4-0.3,0.6
		c-0.2,0.2-0.5,0.3-0.7,0.3h-10h-2.7h-2c-0.3,0-0.5-0.1-0.7-0.3c-0.2-0.2-0.3-0.4-0.3-0.6v-30.1c0-0.2,0.1-0.4,0.3-0.6
		c0.2-0.2,0.5-0.3,0.7-0.3h2h2.7h10c0.3,0,0.5,0.1,0.7,0.3c0.2,0.2,0.3,0.4,0.3,0.6v3.1c0,0.2-0.1,0.4-0.3,0.6
		c-0.2,0.2-0.5,0.3-0.7,0.3H126.2z"/>
	<path class="st0" d="M175.7,163c0.2,0.2,0.3,0.3,0.3,0.5c0,0.2-0.1,0.5-0.3,0.6l-2.8,2.1c-0.3,0.2-0.5,0.2-0.7,0.2
		c-0.3,0-0.6-0.1-0.8-0.3l-1.9-1.8c-0.7,0.7-1.5,1.4-2.7,2c-1.1,0.6-2.5,0.9-4,0.9h-1.5c-2.6,0-4.7-0.7-6.2-2s-2.3-3.1-2.3-5.2v-0.5
		v-0.1v-0.4c0-0.4,0.1-0.9,0.3-1.5c0.2-0.6,0.5-1.2,0.9-1.7c0.8-1.1,1.7-2,2.8-2.7c-1.3-1.2-2.3-2.2-2.9-3.1c-0.3-0.5-0.5-1-0.7-1.6
		c-0.2-0.6-0.3-1-0.3-1.3v-0.1v-0.1V146c0-1.4,0.4-2.7,1.1-3.9c0.7-1.2,1.7-2.1,3-2.8c1.3-0.7,2.8-1,4.4-1h1.5c1.7,0,3.1,0.3,4.4,1
		c1.3,0.7,2.3,1.6,3,2.8c0.7,1.2,1.1,2.5,1.1,3.9v0.8v0.2v0c-0.1,1.1-0.3,1.9-0.7,2.6c-0.5,1.1-1.2,2-2,2.6
		c-0.8,0.6-1.8,1.2-2.9,1.6l2.8,2.5l2.3-3.1c0.2-0.3,0.5-0.4,0.9-0.4c0.2,0,0.4,0,0.5,0.1l3.3,1.3c0.3,0.1,0.5,0.4,0.5,0.8
		c0,0.2,0,0.3-0.1,0.4l-3.3,4.6L175.7,163z M161.8,150.6c1.3-0.5,2.3-1,2.8-1.6c0.6-0.7,0.8-1.3,0.8-2v0v-0.2v-0.6
		c0-1-0.3-1.8-0.9-2.3c-0.6-0.5-1.4-0.8-2.6-0.8c-0.9,0-1.7,0.2-2.4,0.6c-0.7,0.4-1,1-1,1.8v0.5v0.1v0.1c0,0.6,0.3,1.3,0.8,2
		c0.5,0.7,1.1,1.3,1.7,1.8L161.8,150.6z M165.4,160.7l-5.1-4.7l-0.6,0.5c-0.8,0.8-1.2,1.7-1.2,2.4v0.4v0.1c0,2,1.1,3,3.4,3
		c0.6,0,1.1-0.1,1.5-0.3C164.2,161.8,164.8,161.3,165.4,160.7z"/>
	<path class="st0" d="M205.4,136.2c1.4,0.6,2.6,1.4,3.4,2.5s1.2,2.3,1.2,3.6v17.8c0,1.4-0.4,2.6-1.2,3.6c-0.8,1.1-2,1.9-3.4,2.5
		s-3,0.9-4.8,0.9h-3.3H194h-1.4c-0.3,0-0.5-0.1-0.7-0.3c-0.2-0.2-0.3-0.4-0.3-0.6v-30.1c0-0.2,0.1-0.4,0.3-0.6
		c0.2-0.2,0.5-0.3,0.7-0.3h1.4h3.3h3.3C202.4,135.3,204,135.6,205.4,136.2z M204.2,142.7c-0.1-0.8-0.5-1.5-1.3-1.9
		c-0.8-0.4-1.8-0.7-3-0.7h-2.6v22.3h2.6c1.2,0,2.2-0.2,3-0.7c0.8-0.4,1.2-1.1,1.3-1.9V142.7z"/>
	<path class="st0" d="M218.7,140.1v8.7h7.9c0.3,0,0.5,0.1,0.7,0.3s0.3,0.4,0.3,0.6v3.1c0,0.2-0.1,0.4-0.3,0.6
		c-0.2,0.2-0.5,0.3-0.7,0.3h-7.9v8.7h10c0.3,0,0.5,0.1,0.7,0.3s0.3,0.4,0.3,0.6v3.1c0,0.2-0.1,0.4-0.3,0.6s-0.5,0.3-0.7,0.3h-10H216
		h-2c-0.3,0-0.5-0.1-0.7-0.3c-0.2-0.2-0.3-0.4-0.3-0.6v-30.1c0-0.2,0.1-0.4,0.3-0.6c0.2-0.2,0.5-0.3,0.7-0.3h2h2.7h10
		c0.3,0,0.5,0.1,0.7,0.3s0.3,0.4,0.3,0.6v3.1c0,0.2-0.1,0.4-0.3,0.6s-0.5,0.3-0.7,0.3H218.7z"/>
	<path class="st0" d="M265.2,135.3c0,0,0.1,0.1,0.2,0.3s0.2,0.4,0.2,0.6l-5.8,30.1c0,0.2-0.2,0.4-0.4,0.6s-0.5,0.3-0.8,0.3h-0.9
		h-3.9h-0.1c-0.3,0-0.6-0.1-0.8-0.3s-0.4-0.4-0.4-0.6l-3.5-20.3l-3.5,20.3c-0.1,0.2-0.2,0.4-0.4,0.6c-0.2,0.2-0.5,0.3-0.8,0.3h-0.1
		h-3.9h-0.9c-0.3,0-0.6-0.1-0.8-0.3c-0.2-0.2-0.4-0.4-0.4-0.6l-5.8-30.1v-0.1c0-0.2,0.1-0.4,0.2-0.5c0.2-0.2,0.4-0.2,0.6-0.2h3.8
		c0.3,0,0.6,0.1,0.8,0.3c0.2,0.2,0.4,0.4,0.4,0.6l4,20.7l3.8-20.7c0-0.2,0.2-0.4,0.4-0.6c0.2-0.2,0.5-0.2,0.8-0.3h0.1h3.5h0.1
		c0.3,0,0.5,0.1,0.7,0.3c0.2,0.2,0.3,0.4,0.4,0.6l3.8,20.7l4-20.7c0.1-0.2,0.2-0.4,0.4-0.6c0.2-0.2,0.5-0.3,0.8-0.3h3.7
		C265,135.3,265.2,135.3,265.2,135.3z"/>
</g>
</svg>
